PathFileType	4	(X/Y/Z)	/Users/itak/Documents/Research/Walk-IL/dataset/trc/00344_00011.trc
DataRate	CameraRate	NumFrames	NumMarkers	Units	OrigDataRate	OrigDataStartFrame	OrigNumFrames
100.000000	100.000000	4	53	mm	100.000000	172	688
Frame#	Time	RPSI			LPSI			L3			STRN			T10			C7			CLAV			RBAK			LBAK			LSHO			LUPA			LAEL			LAOL			LWTS			LWPS			LFRA			LIFD			LHPS			LHTS			RSHO			RUPA			RAEL			RAOL			RWTS			RWPS			RFRA			RIFD			RHTS			RHPS			RBHD			LFHD			RFHD			LBHD			LHIP			RHIP			RASI			LASI			LKNE			LTHI			LANK			LTIP			LTOE			LMT1			LMT5			LHEE			RKNE			RTHI			RANK			RTIP			RTOE			RMT1			RMT5			RHEE			
		X1	Y1	Z1	X2	Y2	Z2	X3	Y3	Z3	X4	Y4	Z4	X5	Y5	Z5	X6	Y6	Z6	X7	Y7	Z7	X8	Y8	Z8	X9	Y9	Z9	X10	Y10	Z10	X11	Y11	Z11	X12	Y12	Z12	X13	Y13	Z13	X14	Y14	Z14	X15	Y15	Z15	X16	Y16	Z16	X17	Y17	Z17	X18	Y18	Z18	X19	Y19	Z19	X20	Y20	Z20	X21	Y21	Z21	X22	Y22	Z22	X23	Y23	Z23	X24	Y24	Z24	X25	Y25	Z25	X26	Y26	Z26	X27	Y27	Z27	X28	Y28	Z28	X29	Y29	Z29	X30	Y30	Z30	X31	Y31	Z31	X32	Y32	Z32	X33	Y33	Z33	X34	Y34	Z34	X35	Y35	Z35	X36	Y36	Z36	X37	Y37	Z37	X38	Y38	Z38	X39	Y39	Z39	X40	Y40	Z40	X41	Y41	Z41	X42	Y42	Z42	X43	Y43	Z43	X44	Y44	Z44	X45	Y45	Z45	X46	Y46	Z46	X47	Y47	Z47	X48	Y48	Z48	X49	Y49	Z49	X50	Y50	Z50	X51	Y51	Z51	X52	Y52	Z52	X53	Y53	Z53	

173	1.72	511.4829406738281	964.2503051757812	821.4371337890625	411.7411804199219	965.4302978515625	738.235107421875	453.8319091796875	1028.49951171875	779.8311767578125	596.1732177734375	1211.248046875	590.1461181640625	435.7421875	1147.723876953125	771.4991455078125	443.7239379882812	1393.635498046875	716.6204223632812	559.2213745117188	1336.972534179688	612.0789794921875	464.3460083007812	1260.428955078125	806.173095703125	363.9626159667969	1350.673217773438	654.6776123046875	384.9340209960938	1364.99755859375	554.8031616210938	340.5950927734375	1241.47998046875	512.1964111328125	384.1022033691406	1047.1220703125	458.9167175292969	373.7745056152344	1018.372741699219	538.5029907226562	550.097900390625	852.5698852539062	397.5335388183594	490.7790222167969	826.1362915039062	372.4842224121094	417.9277648925781	951.4815673828125	426.5037231445312	607.6049194335938	705.8888549804688	372.1926574707031	513.8272094726562	759.7366333007812	365.5257873535156	573.9140625	783.412841796875	363.0080871582031	600.6516723632812	1390.129028320312	789.8163452148438	639.3651733398438	1330.059204101562	845.9468383789062	686.2216796875	1068.729858398438	889.5283813476562	599.043212890625	1051.48095703125	853.7965698242188	758.2789916992188	845.3782348632812	785.7003784179688	777.6196899414062	831.4024658203125	858.7994384765625	716.5740966796875	1002.215454101562	883.092529296875	786.6980590820312	674.1316528320312	780.9788208007812	798.7352294921875	747.6691284179688	776.4199829101562	794.8302612304688	748.1210327148438	845.6541137695312	549.176025390625	1605.780517578125	723.8413696289062	548.4180908203125	1598.39208984375	514.3738403320312	625.4562377929688	1605.127685546875	579.6814575195312	423.3530883789062	1593.102905273438	652.3470458984375	386.910400390625	906.438720703125	605.1187744140625	649.562744140625	920.1813354492188	825.3602905273438	677.86767578125	951.7864379882812	716.853759765625	508.9319458007812	933.5742797851562	549.0052490234375	488.8776550292969	447.4165954589844	619.7454833984375	460.9947509765625	586.3072509765625	596.7940673828125	485.4720764160156	44.22026443481445	751.1763305664062	481.2388305664062	230.4097290039062	677.958984375	656.0413818359375	42.77495956420898	622.35302734375	647.7551879882812	27.02203178405762	701.3347778320312	550.832275390625	40.84648513793945	643.5615844726562	518.9708251953125	41.76808547973633	819.235107421875	793.5162353515625	500.6748046875	677.3504638671875	753.1048583984375	742.6179809570312	735.5206909179688	696.4666748046875	115.3152160644531	836.958984375	784.89501953125	380.6510314941406	695.4096069335938	794.8672485351562	47.48405075073242	678.2427978515625	725.4135131835938	56.87017059326172	683.5952758789062	775.1234741210938	68.68524932861328	790.7166137695312	629.2266235351562	131.7909851074219	833.34033203125	
174	1.73	519.6742553710938	964.1370849609375	816.33203125	418.1369934082031	965.2032470703125	735.329345703125	460.0608825683594	1028.630737304688	776.3659057617188	599.2545776367188	1210.68505859375	583.1431884765625	441.8760681152344	1147.5498046875	767.3512573242188	449.0816955566406	1393.166870117188	711.7505493164062	562.7525634765625	1336.442749023438	605.5504150390625	470.8918151855469	1260.056030273438	801.197509765625	368.0790405273438	1350.247314453125	651.1956176757812	387.5430908203125	1364.513793945312	550.9669799804688	342.8507995605469	1240.922607421875	509.0401306152344	386.5477600097656	1046.875366210938	454.6421813964844	377.798828125	1017.813781738281	534.3070068359375	554.3271484375	855.16064453125	389.7108154296875	495.0465698242188	827.8629150390625	365.4562072753906	421.0645446777344	951.7881469726562	421.275146484375	614.003173828125	709.7326049804688	362.4510498046875	519.150146484375	761.9287109375	357.7573852539062	578.740478515625	786.6544189453125	354.3482055664062	606.9408569335938	1389.720703125	782.5442504882812	646.4468383789062	1329.721923828125	838.1228637695312	693.87939453125	1068.622314453125	881.6231079101562	606.1337280273438	1051.044799804688	846.9302978515625	764.1712036132812	844.4252319335938	778.2100830078125	784.75244140625	831.0679931640625	851.1213989257812	724.087158203125	1002.062866210938	875.0780639648438	791.9929809570312	672.935546875	774.7509765625	804.05908203125	746.3717651367188	769.2349243164062	801.5726318359375	747.591796875	838.482666015625	554.29931640625	1605.258544921875	717.697265625	550.6980590820312	1598.044799804688	508.1422119140625	628.6234741210938	1604.789916992188	572.3639526367188	427.5506286621094	1592.45556640625	647.812255859375	390.3726501464844	906.052734375	602.8101196289062	657.8889770507812	920.3004760742188	817.0673828125	683.4733276367188	951.8291625976562	707.986328125	511.1566162109375	933.1908569335938	543.7171020507812	489.6421508789062	447.1089172363281	618.0357055664062	462.6192016601562	586.0814819335938	595.0652465820312	485.5021667480469	44.23975372314453	751.2055053710938	481.6078186035156	230.39306640625	677.3826904296875	655.982666015625	42.6849479675293	622.3151245117188	647.7452392578125	27.21171760559082	701.126953125	550.7484741210938	40.77261734008789	643.4602661132812	519.0831909179688	41.86357498168945	819.2371215820312	799.3430786132812	500.4910278320312	664.7506713867188	759.6051635742188	743.177001953125	724.509765625	719.7689208984375	105.7663192749023	811.33349609375	794.65234375	379.5346984863281	678.8442993164062	814.7581176757812	48.15632629394531	646.8551025390625	745.2572631835938	54.82674407958984	654.8843383789062	798.1326293945312	63.61124038696289	760.7198486328125	651.9346923828125	120.0108184814453	810.68212890625	
175	1.74	527.8843994140625	963.960205078125	811.0109252929688	424.6302795410156	964.926513671875	732.2620239257812	466.3752746582031	1028.745361328125	772.852783203125	602.3611450195312	1210.044555664062	576.0823364257812	448.1056213378906	1147.30029296875	763.0448608398438	454.4849243164062	1392.592651367188	706.799560546875	566.271728515625	1335.815185546875	598.9547729492188	477.4602355957031	1259.540161132812	796.04248046875	372.2564086914062	1349.706909179688	647.6477661132812	390.2026672363281	1363.945068359375	547.0902709960938	345.1174926757812	1240.27880859375	505.8630981445312	388.8306579589844	1046.468505859375	450.4798583984375	381.5833129882812	1017.161071777344	530.1980590820312	558.236328125	857.5337524414062	382.1541137695312	499.0352478027344	829.3995361328125	358.6697387695312	423.9857177734375	951.9459228515625	416.2096862792969	619.9639282226562	713.3652954101562	353.0291137695312	524.1221313476562	763.92578125	350.236328125	583.19775390625	789.6683959960938	345.9843139648438	613.1953735351562	1389.186401367188	775.1923217773438	653.4715576171875	1329.247314453125	830.2168579101562	701.5083618164062	1068.390625	873.5734252929688	613.2545776367188	1050.533081054688	840.0084838867188	770.05322265625	843.3148193359375	770.6456298828125	791.8976440429688	830.6429443359375	843.3548583984375	731.5971069335938	1001.821655273438	866.915283203125	797.2448120117188	671.5911865234375	768.5902709960938	809.3400268554688	744.8995361328125	762.0512084960938	808.3094482421875	746.943359375	831.319091796875	559.4143676757812	1604.613159179688	711.4951171875	553.009033203125	1597.6025390625	501.9146728515625	631.7926635742188	1604.346069335938	565.044189453125	431.7531127929688	1591.69384765625	643.2208251953125	393.9684448242188	905.5830078125	600.3699951171875	666.1500854492188	920.3157348632812	808.6392822265625	689.0712280273438	951.75048828125	699.0040893554688	513.4420166015625	932.7066040039062	538.4075927734375	490.5818786621094	446.7820434570312	616.265625	464.39501953125	585.7978515625	593.2449340820312	485.552490234375	44.27385711669922	751.2418823242188	482.0750732421875	230.3602294921875	676.7333984375	655.93603515625	42.55517578125	622.2855224609375	647.6755981445312	27.19969940185547	701.0501098632812	550.7157592773438	40.69932556152344	643.37353515625	519.2059326171875	41.96936416625977	819.2597045898438	804.8059692382812	499.7418518066406	652.7803955078125	765.7791748046875	743.436767578125	713.6465454101562	742.6299438476562	96.565673828125	784.5693969726562	803.9476928710938	378.2415466308594	662.4988403320312	833.2449951171875	49.3848762512207	614.6051025390625	763.9094848632812	53.4315071105957	625.363037109375	820.251953125	59.04628372192383	729.51220703125	674.4838256835938	108.6698989868164	786.9988403320312	
176	1.75	536.1104736328125	963.6956787109375	805.45849609375	431.2286682128906	964.6010131835938	729.0240478515625	472.8070068359375	1028.814819335938	769.263427734375	605.4915771484375	1209.314453125	568.95166015625	454.433349609375	1146.963256835938	758.582763671875	459.9085083007812	1391.903198242188	701.7766723632812	569.7831420898438	1335.083618164062	592.2902221679688	484.0558471679688	1258.866455078125	790.7116088867188	376.5065612792969	1349.04150390625	644.0280151367188	392.9159545898438	1363.274780273438	543.1739501953125	347.3981018066406	1239.535278320312	502.6567687988281	390.9675598144531	1045.889892578125	446.4173583984375	385.1268920898438	1016.399108886719	526.162109375	561.8305053710938	859.6526489257812	374.8619689941406	502.7488708496094	830.7205200195312	352.1171569824219	426.6994934082031	951.938720703125	411.2929992675781	625.4822387695312	716.7369384765625	343.9472045898438	528.7398681640625	765.6972045898438	342.9571838378906	587.2954711914062	792.4204711914062	337.9221496582031	619.4218139648438	1388.5146484375	767.7601928710938	660.448974609375	1328.630737304688	822.2329711914062	709.1032104492188	1068.016723632812	865.4016723632812	620.4065551757812	1049.959594726562	833.05810546875	775.9481811523438	842.0491333007812	763.0156860351562	799.032470703125	830.1018676757812	835.5086059570312	739.0880126953125	1001.46630859375	858.635498046875	802.506591796875	670.1142578125	762.4485473632812	814.63134765625	743.2836303710938	754.8507690429688	815.0234985351562	746.1658935546875	824.1345825195312	564.5294799804688	1603.820556640625	705.2265625	555.363037109375	1597.055541992188	495.6846008300781	634.9686889648438	1603.778076171875	557.7286987304688	435.9797973632812	1590.816772460938	638.5757446289062	397.704345703125	905.0328979492188	597.7775268554688	674.3369140625	920.1969604492188	800.0732421875	694.6798706054688	951.5255737304688	689.9137573242188	515.7998046875	932.1151733398438	533.0709228515625	491.7084350585938	446.42822265625	614.3844604492188	466.317626953125	585.4550170898438	591.2899169921875	485.6246337890625	44.3247184753418	751.2809448242188	482.6506958007812	230.3062133789062	675.9859619140625	655.9131469726562	42.37629699707031	622.2631225585938	647.5643310546875	26.98133659362793	701.1043701171875	550.7315673828125	40.62956619262695	643.3030395507812	519.3408203125	42.09371185302734	819.3010864257812	809.9239501953125	498.4274291992188	641.4570922851562	771.650146484375	743.3432006835938	702.9605712890625	764.9710693359375	87.91526794433594	756.7324829101562	812.7857055664062	376.8228454589844	646.4459838867188	850.3568725585938	51.32669830322266	581.695068359375	781.3912963867188	52.8232307434082	595.1844482421875	841.4328002929688	55.17389678955078	697.2333984375	696.7722778320312	97.92066192626953	762.3203735351562	
